<!DOCTYPE svg PUBLIC "-//W3C//DTD SVG 1.1//EN" "http://www.w3.org/Graphics/SVG/1.1/DTD/svg11.dtd">
<svg
      version="1.1"
      viewBox="18 18 64 64"
      style="fill: #777"
      xmlns="http://www.w3.org/2000/svg"
>
<path
    d="m59.02 37.922c-0.32031 0-0.60938 0.089844-0.85938 0.23047l-5.8398-3.3516-6.6289 3.7188 0.03125-2.5312 4.8008-2.7891c0.82812 0.37109 1.8203 0.058593 2.2891-0.73828 0.5-0.85938 0.19922-1.9688-0.66016-2.4688s-1.9688-0.19922-2.4688 0.66016c-0.12891 0.23047-0.21094 0.48047-0.23047 0.73047l-5.8203 3.3789-0.089843 7.6016-2.1719-1.2891-0.019532-5.6211c0.73828-0.53906 0.96875-1.5508 0.51172-2.3594-0.5-0.85938-1.6016-1.1602-2.4688-0.66016-0.85938 0.5-1.1602 1.6016-0.66016 2.4688 0.12891 0.23047 0.30859 0.42188 0.51172 0.55859l0.019531 6.8086 6.5312 3.8789-2.1992 1.2383-4.7812-2.7383c-0.12109-0.87891-0.87109-1.5703-1.7812-1.5703-1 0-1.8086 0.80859-1.8086 1.8086s0.80859 1.8086 1.8086 1.8086c0.28125 0 0.55078-0.070312 0.78125-0.19141l5.7695 3.3086 6.6289-3.7188-0.03125 2.5312-4.8789 2.8281c-0.82813-0.37109-1.8203-0.070313-2.2891 0.73828-0.5 0.85938-0.19922 1.9688 0.66016 2.4688s1.9688 0.19922 2.4688-0.66016c0.12891-0.23047 0.21094-0.48047 0.23047-0.73047l5.8984-3.4297 0.089843-7.6016 2.1719 1.2891 0.019532 5.6211c-0.73828 0.53906-0.96875 1.5508-0.51172 2.3594 0.5 0.85938 1.6016 1.1602 2.4688 0.66016 0.85938-0.5 1.1602-1.6016 0.66016-2.4688-0.12891-0.23047-0.30859-0.42188-0.51172-0.55859l-0.019531-6.8086-6.5312-3.8789 2.1992-1.2383 4.9492 2.8398c0.16016 0.83984 0.89063 1.4688 1.7695 1.4688 1 0 1.8086-0.80859 1.8086-1.8086-0.007813-0.98438-0.81641-1.793-1.8164-1.793zm-8.7578 3.0781-0.03125 2.6602-2.3203 1.3008-2.2891-1.3594 0.03125-2.6602 2.3203-1.3008z"
></path>
<path
    d="m54.551 72.5c-0.14062 0-0.28906-0.03125-0.42969-0.089844-0.53125-0.23828-0.76953-0.85938-0.53125-1.3906l3.1602-7.0508h5.7305c1.5117 0 2.8008-1.0781 3.0586-2.5703l1.9805-9.0117 2.8008-1.8516c0.050782-0.03125 0.058594-0.078125 0.070313-0.10938s0-0.078125-0.03125-0.12109l-3.6914-4.8516c-0.57812-0.76172-0.87891-1.6992-0.83984-2.6484 0.078125-2.1016-0.14062-7.3984-3.8281-11.219-2.8594-2.9688-7.2383-4.4688-13.031-4.4688-6.6719 0-11.398 2.1211-14.059 6.3086-3.3008 5.1914-2.5586 12.449-1.0195 15.711 0.23047 0.48828 0.55078 1.0312 0.89062 1.6016 1.9219 3.2188 4.8086 8.0898-0.78125 17.148-0.30859 0.5-0.94922 0.64844-1.4492 0.33984-0.5-0.30859-0.64844-0.96094-0.33984-1.4492 4.9219-7.9688 2.6094-11.852 0.76172-14.969-0.35938-0.60938-0.71094-1.1914-0.98047-1.7812-1.7891-3.8008-2.6211-11.82 1.1484-17.738 2.0977-3.3281 6.5703-7.2891 15.828-7.2891 6.3789 0 11.27 1.7188 14.539 5.1211 4.25 4.4102 4.5117 10.398 4.4219 12.77-0.019532 0.46094 0.12891 0.92188 0.42187 1.3008l3.6914 4.8594c0.37891 0.5 0.53125 1.1406 0.42188 1.75s-0.46875 1.1602-0.98828 1.5117l-2.0898 1.3789-1.7812 8.1211c-0.42969 2.4609-2.5781 4.2812-5.1211 4.2812h-4.3594l-2.6094 5.8008c-0.17578 0.375-0.55469 0.60547-0.96484 0.60547z"
    ></path>
</svg>
